<svg width="504" height="89" viewBox="0 0 504 89" fill="none" xmlns="http://www.w3.org/2000/svg">
<path d="M126 37L134.209 31.2894L114.399 2.81251L116.011 37.4646L126 37ZM42 37L50.526 31.7744L34.3967 5.45821L32.0295 36.233L42 37ZM210 37L219.062 32.7711L204.18 0.881966L200.068 35.8316L210 37ZM116.011 37.4646C116.73 52.9281 101.834 69 84 69V89C112.558 89 137.27 64.0719 135.989 36.5354L116.011 37.4646ZM84 69C76.9265 69 71.4059 65.2119 65.868 57.8178C63.0937 54.1136 60.5862 49.8468 58.0663 45.2746C55.6813 40.9474 53.0605 35.9096 50.526 31.7744L33.474 42.2256C35.6895 45.8404 37.7942 49.9276 40.5505 54.9285C43.1718 59.6845 46.2214 64.9489 49.86 69.8072C57.1481 79.5381 67.8775 89 84 89V69ZM32.0295 36.233C31.4672 43.5419 27.8145 51.9751 21.7746 58.5442C15.8057 65.036 8.19863 69 0 69V89C14.9973 89 27.6402 81.714 36.4973 72.0808C45.2835 62.5249 51.0328 49.9581 51.9705 37.767L32.0295 36.233ZM200.068 35.8316C199.336 42.0563 195.633 50.7144 189.433 57.7786C183.289 64.7785 175.815 69 168 69V89C183.381 89 195.907 80.7215 204.464 70.9714C212.965 61.2856 218.664 48.9437 219.932 38.1684L200.068 35.8316ZM168 69C161.332 69 155.433 64.7294 149.385 56.4252C146.462 52.4123 143.881 47.9694 141.406 43.5378C139.101 39.4111 136.576 34.6921 134.209 31.2894L117.791 42.7106C119.424 45.0579 121.249 48.4639 123.945 53.2904C126.47 57.8119 129.54 63.1502 133.218 68.1998C140.371 78.0206 151.472 89 168 89V69ZM252 69C244.802 69 238.636 64.9448 232.812 57.4758C226.925 49.9261 222.701 40.5696 219.062 32.7711L200.938 41.2289C204.299 48.4304 209.477 60.0739 217.041 69.7742C224.668 79.5552 236.003 89 252 89V69Z" fill="#F7DEC7"/>
<path d="M378 37L386.209 31.2894L366.399 2.81251L368.011 37.4646L378 37ZM294 37L302.526 31.7744L286.397 5.45821L284.029 36.233L294 37ZM462 37L471.062 32.7711L456.18 0.881966L452.068 35.8316L462 37ZM368.011 37.4646C368.73 52.9281 353.834 69 336 69V89C364.558 89 389.27 64.0719 387.989 36.5354L368.011 37.4646ZM336 69C328.927 69 323.406 65.2119 317.868 57.8178C315.094 54.1136 312.586 49.8468 310.066 45.2746C307.681 40.9474 305.061 35.9096 302.526 31.7744L285.474 42.2256C287.689 45.8404 289.794 49.9276 292.551 54.9285C295.172 59.6845 298.221 64.9489 301.86 69.8072C309.148 79.5381 319.878 89 336 89V69ZM284.029 36.233C283.467 43.5419 279.814 51.9751 273.775 58.5442C267.806 65.036 260.199 69 252 69V89C266.997 89 279.64 81.714 288.497 72.0808C297.283 62.5249 303.033 49.9581 303.971 37.767L284.029 36.233ZM452.068 35.8316C451.336 42.0563 447.633 50.7144 441.433 57.7786C435.289 64.7785 427.815 69 420 69V89C435.381 89 447.907 80.7215 456.464 70.9714C464.965 61.2856 470.664 48.9437 471.932 38.1684L452.068 35.8316ZM420 69C413.332 69 407.433 64.7294 401.385 56.4252C398.462 52.4123 395.881 47.9694 393.406 43.5378C391.101 39.4111 388.576 34.6921 386.209 31.2894L369.791 42.7106C371.424 45.0579 373.249 48.4639 375.945 53.2904C378.47 57.8119 381.54 63.1502 385.218 68.1998C392.371 78.0206 403.472 89 420 89V69ZM504 69C496.802 69 490.636 64.9448 484.812 57.4758C478.925 49.9261 474.701 40.5696 471.062 32.7711L452.938 41.2289C456.299 48.4304 461.477 60.0739 469.041 69.7742C476.668 79.5552 488.003 89 504 89V69Z" fill="#F7DEC7"/>
</svg>
