<svg width="252" height="46" viewBox="0 0 252 46" fill="none" xmlns="http://www.w3.org/2000/svg">
<path d="M122 0C122 20.9868 104.987 38 84 38V46C109.405 46 130 25.4051 130 0H122ZM84 38C63.0132 38 46 20.9868 46 0H38C38 25.4051 58.5949 46 84 46V38ZM38 0C38 20.9868 20.9868 38 0 38V46C25.4051 46 46 25.4051 46 0H38ZM206 0C206 20.9868 188.987 38 168 38V46C193.405 46 214 25.4051 214 0H206ZM168 38C147.013 38 130 20.9868 130 0H122C122 25.4051 142.595 46 168 46V38ZM252 38C231.013 38 214 20.9868 214 0H206C206 25.4051 226.595 46 252 46V38Z" fill="#F7DEC7"/>
</svg>
